<?xml version="1.0" encoding="UTF-8" ?>
<!DOCTYPE svg PUBLIC "-//W3C//DTD SVG 1.1//EN" "http://www.w3.org/Graphics/SVG/1.1/DTD/svg11.dtd">
<svg width="1000pt" height="1000pt" viewBox="0 0 1000 1000" version="1.1" xmlns="http://www.w3.org/2000/svg">
<path fill="#3f1b7d" d=" M 0.00 0.00 L 1000.00 0.00 L 1000.00 1000.00 L 0.00 1000.00 L 0.00 0.00 Z" />
<path fill="#fdfdfe" d=" M 651.41 55.41 C 656.94 50.51 662.35 45.49 668.02 40.75 C 683.27 43.95 698.93 41.56 714.35 42.70 C 724.58 43.16 734.82 43.60 745.06 43.58 C 752.48 43.53 757.14 50.69 764.03 52.37 C 769.55 51.72 772.14 44.64 777.95 44.77 C 787.37 44.94 796.60 42.06 806.05 43.06 C 813.46 43.77 820.93 43.33 828.35 44.12 C 833.21 44.53 838.10 43.94 842.96 44.36 C 844.64 44.48 845.84 45.84 847.10 46.81 C 853.58 52.72 860.46 58.17 867.16 63.82 C 868.54 65.24 870.69 65.66 872.32 64.36 C 878.79 59.65 883.81 53.09 890.38 48.58 C 897.24 47.88 904.18 48.47 911.08 48.26 C 916.09 47.46 918.16 52.88 921.47 55.51 C 928.47 61.26 936.10 66.21 943.32 71.67 C 946.46 74.01 948.33 77.52 950.07 80.93 C 957.28 94.84 966.10 107.84 973.25 121.78 C 975.74 126.92 979.57 131.44 981.20 136.95 C 979.90 140.78 977.51 144.11 975.59 147.64 C 970.69 156.40 966.26 165.42 961.07 174.02 C 956.64 181.08 952.64 188.41 949.09 195.95 C 945.82 195.69 942.55 195.57 939.28 195.55 C 935.00 195.65 931.24 193.36 927.41 191.80 C 927.36 196.21 927.48 200.62 927.09 205.02 C 925.78 215.98 926.57 227.05 926.33 238.06 C 926.27 244.97 920.94 250.06 917.82 255.78 C 915.44 260.26 911.29 263.97 910.23 269.03 C 909.63 291.02 911.10 312.99 910.74 334.99 C 911.54 347.33 911.14 359.69 911.28 372.05 C 912.13 385.90 911.79 399.79 911.70 413.66 C 905.03 417.23 898.33 420.81 892.23 425.31 C 889.68 427.17 887.05 428.93 884.35 430.56 C 887.15 436.96 890.50 443.09 893.83 449.23 C 896.52 454.20 900.56 458.95 900.32 464.94 C 900.23 499.62 900.35 534.31 900.25 568.99 C 900.34 572.45 899.83 576.04 900.82 579.42 C 903.50 585.38 910.12 589.76 909.66 596.94 C 909.44 610.61 910.11 624.32 909.00 637.97 C 908.65 648.61 909.15 659.28 908.78 669.93 C 907.85 685.27 909.11 700.66 907.96 716.00 C 907.63 727.87 908.01 739.74 907.78 751.61 C 901.46 753.63 899.78 760.46 896.55 765.46 C 893.30 770.60 890.36 775.92 887.35 781.20 C 887.50 781.51 887.79 782.13 887.94 782.44 C 890.77 788.45 893.77 794.37 896.56 800.40 C 900.25 808.44 898.26 817.48 898.72 826.00 C 899.26 837.88 899.07 849.78 899.29 861.67 C 906.69 865.77 913.72 870.65 921.78 873.46 C 927.92 876.37 933.43 880.43 939.57 883.36 C 948.21 887.77 956.25 893.31 965.30 896.92 C 965.27 902.28 965.75 907.63 966.28 912.96 C 966.59 930.24 967.62 947.50 968.78 964.74 C 958.21 964.85 947.63 964.77 937.06 964.79 C 936.07 948.67 935.12 932.53 933.62 916.46 C 926.90 913.01 920.81 908.52 914.21 904.88 C 907.26 900.76 900.02 897.16 893.05 893.09 C 888.04 890.03 883.10 886.87 878.12 883.78 C 877.91 864.85 878.02 845.92 878.04 827.00 C 877.93 820.57 879.03 813.76 876.27 807.72 C 872.23 798.71 866.79 790.43 862.46 781.58 C 861.30 778.77 859.52 775.66 860.61 772.57 C 862.02 768.56 864.29 764.95 866.40 761.29 C 870.99 754.15 874.89 746.60 879.41 739.42 C 881.18 736.58 882.91 733.49 882.76 730.02 C 882.66 681.01 882.73 632.00 882.72 582.99 C 882.80 576.36 876.39 571.73 876.69 565.07 C 876.63 551.37 876.84 537.68 876.64 523.99 C 875.52 506.38 876.71 488.72 875.91 471.10 C 875.25 471.17 873.92 471.33 873.26 471.40 C 870.26 476.68 866.27 481.47 864.14 487.18 C 862.96 495.93 864.66 504.85 863.45 513.61 C 861.53 519.44 857.70 524.39 854.79 529.75 C 846.21 544.33 839.09 559.73 830.21 574.14 C 826.38 580.77 822.87 587.57 819.26 594.32 C 817.13 598.06 815.11 601.88 813.72 605.97 C 824.02 601.17 833.76 595.23 843.59 589.54 C 849.15 586.64 854.97 584.23 860.29 580.87 C 861.67 583.70 862.96 586.69 862.78 589.93 C 862.69 603.64 862.71 617.36 862.77 631.08 C 863.00 636.68 859.12 641.14 857.00 646.03 C 852.64 655.49 846.98 664.29 842.97 673.91 C 840.71 679.19 837.78 684.15 835.40 689.37 C 833.99 692.13 832.74 695.36 829.76 696.78 C 824.95 699.30 819.95 701.46 815.01 703.71 L 814.95 704.64 C 814.24 713.29 814.92 721.98 814.32 730.64 C 813.60 740.32 814.31 750.04 813.69 759.74 C 813.05 769.38 813.40 779.05 813.27 788.71 C 812.64 797.15 813.07 805.60 812.90 814.05 C 812.93 817.46 810.93 820.36 809.21 823.14 C 804.56 830.28 800.15 837.57 795.93 844.97 C 804.49 860.82 814.94 875.55 823.59 891.35 C 825.77 895.46 829.39 899.14 829.75 903.98 C 830.22 924.43 829.04 944.85 829.20 965.29 C 821.63 965.44 814.05 965.43 806.49 965.30 C 806.41 957.85 806.72 950.41 806.78 942.97 C 807.91 929.66 807.50 916.28 807.80 902.94 C 808.39 896.71 803.95 891.88 801.09 886.82 C 796.19 878.42 791.41 869.95 786.21 861.73 C 784.66 859.00 782.52 856.33 782.43 853.07 C 781.95 839.69 783.77 826.38 783.66 813.00 C 784.03 805.33 784.88 797.68 784.68 789.99 C 785.90 766.35 786.89 742.69 787.85 719.03 C 787.71 715.89 788.48 712.27 786.34 709.63 C 782.45 704.57 777.63 700.29 773.96 695.04 C 771.14 690.83 766.84 687.58 764.76 682.93 C 764.10 675.28 764.69 667.56 764.61 659.89 C 750.73 659.03 736.87 657.82 722.98 657.17 C 718.10 656.74 714.03 659.74 710.04 662.05 C 705.22 664.99 699.99 667.25 695.37 670.53 C 688.74 675.26 681.10 678.19 673.98 682.03 C 668.11 685.15 662.35 688.47 656.51 691.64 C 651.24 694.48 646.38 698.05 640.97 700.65 C 629.07 705.72 618.53 713.52 606.77 718.82 C 591.91 720.35 576.91 718.43 562.00 718.73 C 549.32 718.68 536.64 718.65 523.96 718.79 C 521.72 718.72 519.24 718.97 517.35 717.54 C 510.80 713.08 504.06 708.91 497.44 704.57 C 489.14 699.60 480.55 695.07 472.69 689.39 C 470.50 688.17 468.17 685.95 465.51 686.53 C 461.53 689.11 458.93 693.22 455.77 696.66 C 452.27 700.85 447.80 704.05 444.11 708.04 C 440.07 712.34 436.25 716.83 432.33 721.24 C 429.36 724.63 425.59 727.19 422.61 730.57 C 421.17 731.95 421.35 734.08 421.25 735.91 C 421.30 750.95 421.36 765.99 421.23 781.04 C 420.62 789.73 426.16 797.05 429.47 804.66 C 433.48 811.05 432.50 818.85 432.13 826.01 C 430.34 840.43 432.40 855.02 430.62 869.43 C 430.07 875.90 430.44 882.40 430.28 888.88 C 437.03 893.51 443.86 898.06 450.99 902.08 C 455.80 904.74 459.45 908.95 463.98 912.02 C 465.32 913.22 467.55 914.11 467.52 916.22 C 468.02 933.18 468.53 950.15 469.28 967.11 C 448.47 967.22 427.66 967.19 406.85 967.12 C 406.64 950.42 406.93 933.71 406.74 917.01 C 407.15 914.14 404.21 913.07 402.26 911.81 C 396.91 908.85 391.61 905.81 386.45 902.54 C 379.60 898.25 371.91 895.42 365.30 890.75 C 362.86 889.42 363.33 886.38 363.20 884.06 C 363.36 862.37 363.20 840.67 363.31 818.97 C 363.44 811.70 359.16 805.48 357.16 798.72 C 355.28 793.35 355.53 787.56 355.92 781.98 C 357.20 770.01 356.39 757.95 356.86 745.95 C 356.96 741.42 361.46 739.14 364.19 736.17 C 369.29 731.58 372.01 725.19 375.38 719.37 C 382.00 708.46 387.86 697.13 393.86 685.89 C 397.13 680.13 395.36 673.24 395.68 666.96 C 394.96 655.00 394.52 643.03 393.56 631.09 C 393.08 631.22 392.13 631.48 391.66 631.61 C 387.97 637.32 384.30 643.05 380.96 648.98 C 377.52 655.13 373.36 660.85 370.23 667.17 C 366.64 674.27 362.05 680.77 357.78 687.45 C 352.89 687.90 348.07 688.89 343.30 690.01 C 343.08 667.99 343.35 645.96 343.15 623.94 C 343.26 621.70 342.97 619.20 344.38 617.29 C 348.04 612.04 353.38 608.34 357.87 603.87 C 363.66 598.31 368.21 591.57 374.37 586.38 C 383.43 578.79 389.97 568.61 399.35 561.36 C 400.75 559.95 402.73 561.10 404.27 561.60 C 411.67 564.74 418.62 568.82 425.79 572.44 C 430.48 574.86 435.20 577.31 439.51 580.39 C 444.57 584.03 450.48 586.18 455.89 589.21 C 458.34 590.60 461.03 591.72 463.91 591.59 C 484.31 591.57 504.71 591.42 525.12 591.64 C 525.70 603.12 524.31 614.57 524.63 626.04 C 524.60 628.09 524.69 630.19 524.19 632.21 C 520.51 635.15 515.92 636.61 511.85 638.93 C 505.30 642.17 499.59 646.82 493.02 650.01 C 489.27 651.84 485.52 653.65 481.85 655.62 C 501.23 656.01 520.64 655.14 540.00 656.25 C 554.01 656.31 568.02 656.20 582.03 656.32 C 588.36 656.63 593.89 653.05 599.27 650.21 C 604.61 646.74 610.41 644.02 615.77 640.57 C 617.99 639.34 615.99 637.30 615.17 635.85 C 608.86 626.63 603.60 616.76 597.63 607.32 C 595.66 604.60 596.61 601.20 596.88 598.15 C 611.01 597.73 625.09 596.39 639.22 596.13 C 635.28 590.31 630.88 584.82 627.11 578.89 C 624.99 575.80 623.13 572.18 619.60 570.50 C 614.87 568.13 609.87 566.28 605.38 563.43 C 592.82 554.43 578.94 547.46 565.18 540.52 C 561.66 538.61 558.72 535.82 555.27 533.81 C 543.40 526.92 531.17 520.65 519.37 513.65 C 510.71 507.73 501.19 503.25 492.23 497.84 C 490.78 496.91 489.22 496.06 488.08 494.75 C 487.20 488.53 487.20 482.21 486.69 475.94 C 486.22 465.42 484.97 454.93 485.05 444.38 C 490.20 448.90 493.49 455.01 497.59 460.41 C 500.22 463.85 501.71 468.05 504.57 471.30 C 506.34 471.62 508.14 471.57 509.94 471.59 C 524.12 471.42 538.30 471.58 552.49 471.49 C 552.53 460.33 552.34 449.16 552.79 438.00 C 553.12 428.78 551.82 419.37 554.21 410.34 C 554.83 407.81 555.55 405.30 556.29 402.80 C 558.56 403.62 561.48 403.80 562.77 406.17 C 567.48 413.75 572.18 421.34 577.01 428.84 C 577.70 428.87 579.09 428.91 579.78 428.94 C 579.79 417.61 580.59 406.30 581.04 394.98 C 581.66 381.65 582.08 368.30 583.09 354.99 C 587.14 359.04 589.90 364.11 593.29 368.69 C 597.50 374.51 601.41 380.55 605.34 386.58 C 605.91 386.64 607.07 386.78 607.64 386.84 C 607.58 373.54 608.73 360.28 608.71 346.98 C 609.58 333.80 609.74 320.59 609.71 307.39 C 611.58 307.58 614.07 306.80 615.36 308.61 C 618.00 311.72 619.97 315.32 622.40 318.59 C 628.65 326.81 633.41 336.06 639.93 344.09 C 643.18 348.55 647.73 352.97 647.40 358.94 C 647.30 377.99 647.42 397.04 647.31 416.08 C 661.53 416.53 675.77 416.17 690.00 416.29 C 700.55 416.16 711.10 416.60 721.64 415.98 C 721.49 396.30 721.63 376.62 721.55 356.94 C 721.38 351.74 724.49 347.35 726.94 343.02 C 730.69 336.86 733.13 330.01 736.78 323.80 C 738.31 321.16 739.77 318.47 741.16 315.75 C 747.77 315.52 754.39 315.79 761.01 315.65 C 764.60 315.85 767.27 313.13 769.96 311.16 C 765.33 306.98 760.67 302.81 756.52 298.14 C 759.64 292.57 762.78 287.00 765.92 281.43 C 759.99 281.04 753.75 279.71 748.06 282.06 C 743.11 284.04 739.50 288.14 735.84 291.84 C 730.15 297.80 724.06 303.37 718.63 309.57 C 716.32 312.11 716.22 315.75 715.97 319.00 C 715.74 325.37 715.91 331.75 715.89 338.13 C 710.97 338.88 706.14 340.50 701.14 340.53 C 699.43 340.07 697.76 339.50 696.09 338.96 C 696.74 328.95 697.53 318.94 698.32 308.94 C 698.50 305.03 700.42 301.50 703.03 298.66 C 709.39 292.46 714.86 285.43 721.18 279.18 C 724.47 276.15 727.87 273.21 730.77 269.78 C 736.71 262.72 744.24 257.26 750.35 250.35 C 753.75 246.41 758.07 242.93 759.77 237.82 C 761.56 232.86 763.17 227.84 764.88 222.86 C 781.28 222.75 797.67 222.82 814.06 222.79 C 819.37 222.64 824.20 225.49 827.95 229.02 C 830.34 231.73 830.97 235.45 832.34 238.71 C 834.56 244.93 840.49 248.54 844.64 253.36 C 849.78 259.20 855.47 264.53 860.82 270.18 C 865.95 276.10 871.62 281.52 877.13 287.08 C 877.08 287.75 876.96 289.11 876.91 289.78 C 872.79 289.72 868.46 290.27 864.64 288.40 C 858.63 285.64 852.51 283.06 846.02 281.70 C 848.24 287.70 851.09 293.44 853.79 299.24 C 854.08 300.35 855.09 301.54 854.57 302.73 C 853.05 306.15 850.25 308.77 847.92 311.63 C 852.21 313.95 857.01 314.90 861.60 316.43 C 864.79 317.62 867.40 320.10 868.91 323.16 C 872.97 331.15 877.08 339.13 881.36 347.01 C 877.55 351.37 873.95 355.91 870.67 360.69 C 872.93 363.43 876.38 365.96 876.23 369.90 C 876.42 375.51 876.03 381.13 876.43 386.75 C 876.96 394.24 876.35 401.78 877.31 409.25 C 883.05 407.26 888.24 404.05 893.69 401.41 C 894.01 360.25 893.66 319.10 893.86 277.94 C 894.25 270.58 889.73 264.37 886.98 257.88 C 891.78 249.70 896.41 241.41 901.24 233.24 C 903.40 229.90 902.86 225.77 902.92 221.99 C 902.73 213.69 903.07 205.39 902.73 197.09 C 901.88 185.72 902.55 174.32 902.32 162.94 C 902.38 158.08 898.91 154.35 896.68 150.35 C 892.64 143.36 888.76 136.28 884.57 129.37 C 880.70 121.60 876.59 113.93 871.71 106.74 C 877.95 100.34 884.11 93.82 891.18 88.31 C 897.70 92.11 902.60 97.91 908.36 102.67 C 915.85 109.16 922.91 116.11 930.17 122.85 C 938.21 130.03 939.94 141.66 947.82 148.99 C 952.11 144.22 956.39 139.33 959.64 133.78 C 958.96 130.75 956.98 128.22 955.42 125.59 C 949.56 116.69 944.28 107.43 938.58 98.43 C 933.33 89.79 928.19 80.15 918.82 75.35 C 913.42 72.85 908.27 68.87 902.03 69.16 C 898.03 69.19 893.74 69.17 890.17 71.21 C 886.57 74.28 885.03 79.20 881.18 82.03 C 878.59 82.99 875.72 82.53 873.02 82.75 C 868.45 82.75 863.81 83.81 859.30 82.82 C 852.80 77.66 848.89 69.89 842.55 64.51 C 840.79 62.91 838.24 63.24 836.07 63.09 C 817.35 63.20 798.63 63.14 779.92 63.11 C 774.54 62.77 770.44 66.68 765.98 69.00 C 764.38 70.20 762.65 68.56 761.18 67.92 C 755.98 65.21 751.37 60.29 745.06 60.73 C 722.02 60.80 698.99 60.83 675.96 60.72 C 673.84 60.80 671.56 60.67 669.68 61.81 C 661.07 67.12 653.61 74.00 646.09 80.71 C 639.92 77.21 635.58 71.22 629.46 67.79 C 620.69 66.86 611.82 67.92 603.02 67.36 C 594.01 66.64 584.97 66.86 575.95 66.80 C 573.48 66.93 570.51 66.64 568.79 68.81 C 562.02 76.34 554.74 83.41 547.42 90.41 C 539.51 98.51 531.71 106.72 523.36 114.37 C 523.60 126.25 523.05 138.14 523.78 150.01 C 524.23 160.16 523.35 170.33 524.40 180.45 C 529.98 177.17 534.01 172.04 538.39 167.40 C 542.63 162.96 546.61 158.28 551.07 154.06 C 553.02 152.01 555.48 149.97 555.80 146.97 C 556.85 139.00 557.07 130.95 558.00 122.97 C 558.14 119.32 561.14 116.90 563.49 114.49 C 569.82 108.45 575.74 101.99 582.33 96.24 C 589.92 89.52 596.60 81.85 604.04 74.99 C 605.16 73.64 606.95 74.22 608.41 74.54 C 617.49 77.17 626.48 80.24 635.77 82.09 C 638.78 82.72 641.73 83.64 644.64 84.64 C 641.34 87.70 637.83 90.52 634.49 93.53 C 629.96 97.59 626.82 103.07 621.69 106.47 C 619.58 108.07 617.16 109.42 615.64 111.65 C 614.42 114.73 614.51 118.13 614.49 121.39 C 614.74 132.39 615.17 143.38 615.73 154.36 C 608.73 158.82 601.85 163.44 594.91 167.96 C 589.80 171.26 584.35 173.97 579.13 177.07 C 574.97 190.16 580.47 205.84 571.21 217.29 C 559.29 228.61 547.25 239.83 535.25 251.08 C 534.91 236.91 535.80 222.70 534.76 208.55 C 528.87 211.88 524.82 217.41 519.95 221.95 C 506.84 234.84 493.96 247.95 480.94 260.94 C 470.76 270.08 461.58 280.26 451.65 289.67 C 449.86 291.34 448.16 293.36 448.17 295.96 C 447.47 303.78 446.84 311.61 446.21 319.45 C 438.58 319.58 430.95 319.65 423.33 319.41 C 422.31 330.40 421.41 341.41 420.56 352.42 C 420.22 355.42 420.36 358.82 418.16 361.20 C 410.19 370.83 400.15 378.55 392.28 388.29 C 388.73 392.72 384.22 396.23 380.29 400.30 C 378.46 401.92 376.73 404.27 374.05 404.31 C 367.03 404.90 360.05 403.41 353.02 403.58 C 337.70 403.66 322.43 402.32 307.11 402.36 C 301.64 392.82 295.24 383.87 289.25 374.67 C 283.88 367.54 279.75 359.61 274.74 352.24 C 263.80 351.94 252.86 352.28 241.92 352.12 C 237.88 352.35 235.20 348.95 232.36 346.65 C 226.99 341.68 221.09 337.29 215.90 332.13 C 214.13 330.62 214.29 328.18 214.22 326.08 C 214.24 315.50 214.43 304.92 214.16 294.35 C 207.68 293.93 201.22 293.17 194.76 292.55 C 192.40 292.54 189.59 291.91 187.67 293.70 C 183.01 297.68 179.56 302.87 174.90 306.88 C 168.00 312.97 161.65 319.65 155.43 326.43 C 149.21 332.21 142.92 337.94 137.30 344.32 C 131.79 350.80 124.70 355.70 119.21 362.20 C 117.96 363.44 117.78 365.24 117.74 366.92 C 117.59 377.97 116.80 389.00 116.65 400.05 C 116.68 405.03 113.89 409.37 111.54 413.56 C 102.56 427.76 94.42 442.46 86.18 457.09 C 82.74 463.72 76.85 468.48 71.58 473.60 C 69.54 475.66 66.34 477.57 66.90 480.94 C 67.25 489.36 68.00 497.75 68.59 506.16 C 68.74 509.51 69.01 513.13 67.21 516.15 C 63.09 523.58 57.95 530.39 53.79 537.82 C 48.38 547.61 42.42 557.08 36.72 566.70 C 33.93 571.49 30.32 575.81 28.12 580.93 C 26.74 584.79 27.38 588.98 27.27 593.00 C 27.34 634.00 27.29 675.00 27.29 716.00 C 27.40 722.25 26.36 728.88 29.26 734.71 C 32.85 742.22 36.08 749.89 39.46 757.49 C 41.61 762.47 44.96 767.27 44.70 772.93 C 44.67 787.62 44.59 802.31 44.69 816.99 C 45.73 833.64 44.96 850.33 45.28 866.99 C 45.13 869.80 45.70 872.85 44.53 875.49 C 40.69 880.40 35.16 883.90 31.89 889.26 C 31.22 898.82 32.12 908.43 32.33 918.00 C 32.19 927.34 33.01 936.66 32.88 946.00 C 33.34 953.58 33.72 961.17 33.30 968.77 C 23.77 968.72 14.24 968.72 4.70 968.77 C 3.95 956.15 5.51 943.57 5.18 930.96 C 5.65 922.62 5.74 914.28 5.64 905.94 C 5.40 896.53 15.55 890.56 14.85 881.07 C 14.75 849.05 14.82 817.02 14.81 785.00 C 14.71 778.72 15.42 772.30 13.67 766.17 C 11.53 758.27 9.77 750.29 7.60 742.40 C 6.50 738.36 5.60 734.22 5.64 730.02 C 5.70 685.01 5.68 640.01 5.65 595.00 C 5.68 587.89 7.14 580.90 8.09 573.88 C 8.40 571.11 9.63 568.58 11.34 566.43 C 15.86 560.65 18.99 553.99 22.73 547.72 C 24.44 544.59 26.57 541.56 27.21 537.99 C 27.77 533.01 27.14 528.00 26.96 523.01 C 26.26 501.99 24.92 480.99 25.16 459.95 C 25.31 452.59 26.82 445.08 30.70 438.74 C 39.71 423.07 47.32 406.66 55.62 390.61 C 64.46 375.15 71.34 358.66 80.32 343.26 C 83.45 337.98 86.25 332.51 88.96 327.01 C 92.43 319.83 99.19 315.20 104.39 309.40 C 110.14 302.81 116.63 296.92 122.15 290.13 C 128.79 283.12 135.82 276.47 142.25 269.25 C 148.94 261.62 156.55 254.87 163.28 247.27 C 167.14 243.13 171.32 239.29 175.07 235.05 C 179.43 230.40 183.34 225.14 188.89 221.81 C 193.99 218.71 199.98 217.12 205.95 217.13 C 219.97 216.98 234.02 217.65 248.02 216.63 C 260.90 216.28 273.80 216.85 286.68 216.37 C 297.76 215.44 308.89 216.06 319.99 215.82 C 324.40 215.86 329.22 215.31 333.09 217.89 C 354.35 231.04 375.93 243.65 397.20 256.79 C 398.99 257.74 400.75 259.20 402.86 259.26 C 413.15 257.54 423.62 258.65 434.00 258.34 C 439.63 258.20 445.30 258.77 450.91 258.10 C 453.71 257.16 455.49 254.53 457.59 252.59 C 475.99 233.85 494.97 215.67 512.92 196.47 C 510.16 195.09 507.32 193.84 504.73 192.16 C 502.21 190.71 501.75 187.55 501.34 184.94 C 500.58 174.63 501.93 164.32 501.72 153.99 C 502.15 138.64 502.75 123.29 502.87 107.94 C 502.73 105.74 504.19 104.06 505.77 102.75 C 514.21 95.89 520.55 86.87 528.89 79.88 C 535.71 74.34 540.60 66.92 547.13 61.10 C 550.44 58.10 554.05 55.41 556.99 52.01 C 559.20 49.59 560.96 46.71 563.61 44.71 C 566.33 43.94 569.21 44.26 572.00 44.20 C 582.03 44.41 592.08 43.95 602.10 44.61 C 612.09 44.90 622.08 44.63 632.07 44.67 C 633.77 44.83 635.82 44.51 637.16 45.84 C 640.87 49.32 643.10 54.15 647.20 57.25 C 648.83 57.90 650.17 56.22 651.41 55.41 Z" />
<path fill="#fdfdfe" d=" M 738.14 110.47 C 745.49 108.72 751.61 103.64 758.97 102.12 C 768.03 103.24 775.01 109.93 782.75 114.21 C 783.04 124.14 782.45 134.10 783.30 144.03 C 783.63 152.60 783.42 161.19 783.39 169.77 C 787.12 169.77 790.86 169.74 794.60 169.63 C 794.84 155.73 794.59 141.82 794.76 127.92 C 794.98 124.15 792.56 121.08 790.84 117.97 C 797.51 112.96 804.34 107.85 812.38 105.22 C 815.88 103.94 819.31 105.97 822.19 107.79 C 827.30 111.11 832.69 113.96 837.88 117.15 C 837.82 117.69 837.69 118.78 837.62 119.33 C 832.67 120.36 827.72 121.69 823.39 124.39 C 819.33 126.90 814.79 128.48 810.66 130.83 C 809.07 133.52 809.90 136.99 809.68 140.01 C 809.80 147.19 809.55 154.37 809.98 161.55 C 815.79 160.30 819.87 154.77 825.86 154.45 C 828.94 154.19 829.76 157.52 830.22 159.88 C 830.80 162.21 829.35 164.36 828.40 166.38 C 823.58 175.03 819.16 183.89 814.73 192.75 C 824.07 193.45 833.43 194.41 842.81 194.05 C 840.75 186.07 838.96 178.01 837.83 169.84 C 841.26 169.89 844.97 169.24 848.17 170.89 C 859.78 177.04 870.25 185.09 881.85 191.26 C 880.89 195.80 875.64 194.67 872.49 196.65 C 869.09 198.63 866.25 201.40 863.10 203.72 C 869.08 204.04 875.06 204.44 881.05 204.59 C 883.43 204.58 885.57 205.74 887.68 206.73 C 885.96 211.11 884.42 215.68 881.48 219.41 C 880.06 221.30 877.61 221.80 875.55 222.67 C 875.63 228.60 875.70 234.54 875.40 240.47 C 872.80 237.49 870.37 234.05 866.62 232.46 C 858.87 229.40 850.14 234.03 842.55 230.36 C 839.84 229.19 837.81 227.00 836.03 224.73 C 832.43 220.05 827.21 217.06 823.08 212.92 C 818.83 209.07 814.26 204.24 808.06 204.38 C 791.36 204.38 774.66 204.45 757.96 204.36 C 751.62 204.28 744.91 205.70 740.00 209.94 C 732.57 216.47 724.26 221.87 716.42 227.87 C 714.44 226.61 712.46 225.37 710.45 224.19 C 710.57 226.39 710.76 228.60 711.04 230.80 C 703.34 230.76 695.63 230.65 687.93 230.71 C 680.17 230.73 674.94 237.86 667.35 238.61 C 667.17 232.10 667.88 225.55 667.09 219.08 C 665.41 213.19 660.71 208.73 658.71 202.97 C 658.95 200.76 660.83 199.57 662.95 199.87 C 678.77 199.72 694.59 199.98 710.41 199.80 C 708.85 194.77 705.68 190.53 702.61 186.34 C 701.51 184.72 699.85 183.67 698.18 182.76 C 708.73 178.77 717.65 171.58 727.84 166.87 C 730.68 165.48 733.86 166.61 736.82 166.96 C 735.09 175.70 733.26 184.43 731.21 193.11 C 742.52 193.02 753.86 193.66 765.15 192.66 C 761.61 184.91 756.39 178.11 752.57 170.52 C 750.55 166.58 748.34 162.75 746.01 158.98 C 748.06 157.01 749.57 151.83 753.15 153.85 C 758.12 156.17 762.60 159.73 768.22 160.42 C 768.50 150.36 768.92 140.13 766.85 130.23 C 766.49 127.43 763.48 126.68 761.35 125.60 C 753.55 122.56 746.71 117.12 738.28 115.77 C 738.24 114.00 738.22 112.24 738.14 110.47 Z" />
<path fill="#9888b4" d=" M 615.64 111.65 C 617.16 109.42 619.58 108.07 621.69 106.47 C 619.38 109.96 616.81 113.62 616.74 117.98 C 616.01 130.46 618.45 142.88 617.62 155.38 C 609.70 158.97 603.28 165.35 594.91 167.96 C 601.85 163.44 608.73 158.82 615.73 154.36 C 615.17 143.38 614.74 132.39 614.49 121.39 C 614.51 118.13 614.42 114.73 615.64 111.65 Z" />
<path fill="#9888b4" d=" M 571.21 217.29 C 580.47 205.84 574.97 190.16 579.13 177.07 C 580.97 184.95 579.29 193.02 579.10 200.99 C 578.73 207.06 577.51 214.60 571.21 217.29 Z" />
<path fill="#3f1b7d" d=" M 777.89 238.26 C 789.54 238.33 801.20 238.20 812.86 238.35 C 812.90 240.81 812.99 243.27 813.09 245.73 C 801.34 245.71 789.58 245.63 777.84 245.79 C 777.84 243.28 777.86 240.77 777.89 238.26 Z" />
<path fill="#fdfdfe" d=" M 677.22 253.80 C 686.03 253.89 694.83 254.62 703.65 254.78 C 702.86 261.43 697.56 265.95 694.66 271.65 C 690.52 279.49 685.73 287.00 680.04 293.81 C 679.64 287.55 679.40 281.29 679.02 275.03 C 678.50 267.94 679.12 260.72 677.22 253.80 Z" />
<path fill="#9888b4" d=" M 696.29 307.03 C 696.72 303.22 699.09 299.50 703.03 298.66 C 700.42 301.50 698.50 305.03 698.32 308.94 C 697.53 318.94 696.74 328.95 696.09 338.96 C 697.76 339.50 699.43 340.07 701.14 340.53 C 698.97 340.34 696.81 340.11 694.66 339.87 C 693.90 328.89 695.15 317.94 696.29 307.03 Z" />
<path fill="#3f1b7d" d=" M 839.33 323.15 C 839.88 323.24 840.97 323.42 841.52 323.52 C 846.52 332.25 850.83 341.35 855.95 350.02 C 857.64 352.88 859.18 355.84 860.50 358.91 C 853.23 357.92 846.42 355.04 839.27 353.55 C 839.33 343.42 839.25 333.28 839.33 323.15 Z" />
<path fill="#3f1b7d" d=" M 768.02 332.04 C 769.03 329.47 770.82 327.34 772.82 325.47 C 774.00 335.09 773.20 344.80 773.35 354.47 C 768.35 354.50 763.35 354.52 758.36 354.39 C 761.30 346.82 764.86 339.52 768.02 332.04 Z" />
<path fill="#3f1b7d" d=" M 809.43 335.39 C 811.82 335.43 814.23 335.45 816.64 335.46 C 817.16 338.34 817.67 341.22 818.15 344.11 C 819.48 344.20 820.83 344.28 822.18 344.37 C 823.63 342.07 825.06 339.75 826.49 337.44 C 827.05 337.35 828.17 337.18 828.72 337.09 C 828.67 343.08 828.74 349.06 828.59 355.05 C 824.57 353.48 820.41 351.94 816.02 352.22 C 804.43 352.52 792.83 351.90 781.25 352.65 C 781.25 347.51 781.18 342.37 781.41 337.24 C 785.13 338.57 788.11 341.19 790.59 344.20 C 794.13 342.33 795.79 338.63 797.33 335.15 C 798.89 335.67 800.50 336.12 801.99 336.88 C 803.04 339.19 803.44 341.73 804.02 344.19 C 804.81 344.26 806.37 344.42 807.15 344.49 C 807.87 341.45 808.64 338.42 809.43 335.39 Z" />
<path fill="#3f1b7d" d=" M 776.44 371.34 C 781.16 369.06 785.53 365.12 791.09 365.38 C 797.72 365.42 804.36 365.57 811.00 365.44 C 815.87 365.45 821.10 364.86 825.53 367.39 C 832.02 370.86 838.68 374.22 844.34 379.02 C 829.58 379.77 814.79 378.79 800.03 379.64 C 786.95 379.77 773.87 379.74 760.79 379.63 C 765.84 376.57 771.13 373.92 776.44 371.34 Z" />
<path fill="#fdfdfe" d=" M 174.19 428.14 C 175.33 427.09 176.60 426.15 178.04 425.59 C 180.89 425.97 183.35 427.63 185.88 428.88 C 185.72 444.94 185.83 461.00 185.84 477.05 C 186.02 483.44 182.98 489.23 181.23 495.22 C 178.50 503.34 176.78 511.77 173.94 519.85 C 172.96 522.92 170.68 525.29 168.21 527.26 C 160.70 533.37 154.69 541.05 147.38 547.37 C 138.15 554.50 131.38 564.34 121.82 571.07 C 120.04 563.16 120.98 555.03 120.78 547.00 C 120.59 535.98 120.46 524.95 120.56 513.93 C 120.34 509.54 124.55 507.04 127.16 504.17 C 138.47 492.88 149.83 481.63 161.10 470.32 C 165.13 461.98 162.12 452.46 163.67 443.64 C 164.36 437.02 169.95 432.66 174.19 428.14 Z" />
<path fill="#9888b4" d=" M 162.86 438.83 C 165.75 434.44 169.75 430.89 174.19 428.14 C 169.95 432.66 164.36 437.02 163.67 443.64 C 162.12 452.46 165.13 461.98 161.10 470.32 C 160.20 463.56 161.20 456.77 160.99 449.99 C 161.13 446.25 160.74 442.12 162.86 438.83 Z" />
<path fill="#fdfdfe" d=" M 415.81 477.93 C 421.41 478.00 427.12 477.22 432.65 478.30 C 435.91 481.25 437.46 485.51 440.08 488.97 C 442.09 491.98 444.87 494.37 446.97 497.30 C 447.69 499.09 447.48 501.08 447.58 502.97 C 447.49 510.64 447.57 518.31 447.42 525.99 C 443.39 525.75 438.96 524.95 435.40 527.40 C 428.12 531.88 420.95 536.53 413.92 541.38 C 411.59 542.88 408.68 542.78 406.03 542.89 C 392.51 542.86 378.98 542.76 365.46 542.92 C 365.80 540.42 365.95 537.87 366.60 535.43 C 369.56 532.51 373.58 531.05 377.12 528.98 C 390.06 521.69 403.54 515.31 415.71 506.73 C 415.77 497.13 415.61 487.53 415.81 477.93 Z" />
<path fill="#9888b4" d=" M 802.95 488.91 C 803.68 488.98 805.12 489.12 805.84 489.19 C 807.98 501.01 806.94 513.05 807.28 524.99 C 807.22 528.59 807.51 532.45 805.74 535.74 C 803.73 539.57 800.86 542.86 798.81 546.67 C 796.98 550.06 795.11 553.46 792.63 556.45 C 793.89 553.18 795.11 549.88 796.97 546.90 C 799.32 542.95 802.39 539.37 803.95 534.99 C 805.15 531.46 805.01 527.68 805.04 524.01 C 804.86 513.77 805.38 503.51 804.21 493.32 C 803.06 493.39 801.91 493.48 800.78 493.57 C 801.49 492.01 802.22 490.46 802.95 488.91 Z" />
<path fill="#3f1b7d" d=" M 800.78 493.57 C 801.91 493.48 803.06 493.39 804.21 493.32 C 805.38 503.51 804.86 513.77 805.04 524.01 C 805.01 527.68 805.15 531.46 803.95 534.99 C 802.39 539.37 799.32 542.95 796.97 546.90 C 795.11 549.88 793.89 553.18 792.63 556.45 C 789.93 562.08 786.87 568.35 780.98 571.23 C 773.79 575.24 767.06 580.04 759.68 583.73 C 752.93 587.20 746.73 591.79 739.48 594.24 C 739.25 586.74 739.27 579.24 739.47 571.75 C 749.36 565.81 756.54 556.53 765.70 549.64 C 769.48 546.86 773.53 544.04 775.68 539.71 C 781.09 528.66 787.52 518.17 793.43 507.39 C 796.14 502.93 798.72 498.38 800.78 493.57 Z" />
<path fill="#fdfdfe" d=" M 216.73 518.57 C 218.09 518.67 219.45 518.84 220.80 519.07 C 224.08 522.28 225.74 526.78 228.98 530.06 C 235.42 536.60 242.00 543.01 248.51 549.50 C 249.80 550.89 251.28 552.30 251.70 554.24 C 255.23 570.44 261.35 585.95 264.95 602.13 C 267.11 611.06 271.52 619.61 271.27 628.99 C 271.20 645.99 271.20 663.00 271.27 680.00 C 271.31 683.74 270.91 687.49 269.97 691.12 C 267.41 701.62 264.55 712.06 262.60 722.71 C 260.23 731.28 261.45 740.23 261.14 748.99 C 261.24 753.00 260.58 757.21 262.01 761.06 C 267.85 774.46 276.12 786.63 282.10 799.96 C 284.68 805.26 284.07 811.29 284.12 817.00 C 284.16 829.32 283.78 841.65 284.57 853.96 C 284.65 866.33 284.61 878.70 284.63 891.08 C 284.88 895.91 279.94 899.08 280.15 903.90 C 280.06 925.16 280.38 946.44 280.00 967.70 C 270.96 967.64 261.92 967.64 252.87 967.70 C 252.57 947.78 252.84 927.86 252.71 907.94 C 252.11 902.64 257.83 899.34 257.30 894.07 C 257.25 866.03 257.23 837.99 257.31 809.95 C 257.60 804.94 254.71 800.68 252.57 796.40 C 247.56 787.07 242.33 777.85 237.62 768.37 C 235.73 764.88 236.12 760.81 236.09 756.99 C 236.23 747.64 236.10 738.28 236.09 728.93 C 235.75 723.65 239.58 719.46 240.36 714.41 C 242.15 705.40 244.28 696.47 246.58 687.58 C 247.20 684.59 248.25 681.51 247.69 678.43 C 243.77 675.36 238.92 673.84 234.56 671.51 C 229.88 669.44 225.38 666.19 220.04 666.40 C 209.35 666.42 198.67 666.53 187.98 666.39 C 184.77 666.42 181.40 666.19 178.39 667.52 C 174.55 668.97 171.66 671.99 168.85 674.85 C 162.74 681.08 156.49 687.17 150.31 693.32 C 148.02 695.21 148.38 698.30 148.35 700.96 C 148.58 714.99 148.15 729.02 148.30 743.05 C 148.46 749.57 145.22 755.43 141.84 760.78 C 135.72 770.38 130.13 780.30 123.74 789.73 C 120.65 793.84 121.84 799.23 121.66 804.00 C 122.10 816.68 120.90 829.32 121.19 842.00 C 121.53 851.35 120.19 860.65 120.48 870.00 C 120.68 876.86 120.18 883.74 120.57 890.60 C 124.10 894.20 129.13 895.81 133.06 898.92 C 141.06 905.00 149.39 910.64 157.77 916.18 C 157.91 933.51 157.79 950.83 157.83 968.16 C 137.87 968.36 117.91 968.14 97.95 968.26 C 80.98 969.19 63.97 968.54 46.99 968.75 C 46.94 958.38 46.30 948.02 46.76 937.65 C 53.65 939.00 59.44 943.09 65.50 946.37 C 70.54 949.13 75.06 952.92 80.69 954.45 C 80.80 948.96 80.78 943.46 80.89 937.97 C 84.50 938.49 88.38 938.49 91.57 940.50 C 101.01 946.58 110.47 952.67 120.20 958.28 C 121.36 948.15 119.15 938.07 119.53 927.93 C 120.00 921.49 115.77 916.25 113.06 910.80 C 111.00 906.75 108.29 903.07 105.32 899.65 C 98.19 891.08 91.47 882.19 84.47 873.52 C 82.55 871.05 80.18 868.80 79.05 865.83 C 78.29 861.93 78.72 857.93 78.66 854.00 C 78.73 826.30 78.61 798.60 78.73 770.91 C 79.11 767.17 76.75 764.13 74.62 761.36 C 69.14 754.39 64.70 746.69 59.31 739.67 C 56.96 736.24 53.94 733.06 52.85 728.96 C 51.89 721.97 53.94 715.01 53.60 708.01 C 53.24 696.59 54.90 685.25 54.84 673.84 C 58.52 674.55 62.21 675.50 65.48 677.41 C 72.12 681.16 78.70 685.02 85.50 688.48 C 92.55 691.93 98.92 697.03 106.90 698.19 C 107.75 683.79 108.50 669.38 109.19 654.98 C 109.49 651.43 108.61 647.21 111.43 644.45 C 128.26 627.28 145.83 610.84 162.59 593.59 C 164.61 591.68 166.53 589.37 169.25 588.47 C 175.11 587.61 181.07 588.82 186.93 587.95 C 189.18 587.61 190.70 585.74 192.29 584.30 C 198.84 577.51 205.44 570.77 212.32 564.31 C 213.73 562.74 215.83 561.29 215.81 558.96 C 216.13 553.34 215.67 547.70 216.15 542.09 C 216.80 534.26 216.35 526.41 216.73 518.57 Z" />
<path fill="#9888b4" d=" M 910.46 633.78 C 910.96 646.57 910.82 659.39 910.52 672.18 C 910.02 659.39 910.14 646.57 910.46 633.78 Z" />
<path fill="#9888b4" d=" M 814.95 704.64 C 815.65 705.68 816.67 706.67 816.66 708.04 C 817.30 722.69 815.59 737.33 816.07 752.00 C 815.63 762.99 815.68 773.99 815.54 785.00 C 814.70 795.67 815.16 806.38 814.93 817.07 L 813.73 817.04 C 813.52 807.60 813.91 798.14 813.27 788.71 C 813.40 779.05 813.05 769.38 813.69 759.74 C 814.31 750.04 813.60 740.32 814.32 730.64 C 814.92 721.98 814.24 713.29 814.95 704.64 Z" />
<path fill="#9888b4" d=" M 444.20 709.22 C 444.69 709.70 444.69 709.70 444.20 709.22 Z" />
<path fill="#9888b4" d=" M 857.05 774.26 C 860.04 769.86 862.60 765.10 866.40 761.29 C 864.29 764.95 862.02 768.56 860.61 772.57 C 859.52 775.66 861.30 778.77 862.46 781.58 C 866.79 790.43 872.23 798.71 876.27 807.72 C 879.03 813.76 877.93 820.57 878.04 827.00 C 878.02 845.92 877.91 864.85 878.12 883.78 C 883.10 886.87 888.04 890.03 893.05 893.09 C 886.87 891.09 881.54 887.32 875.73 884.54 C 876.93 873.73 876.15 862.85 876.36 852.00 C 876.40 841.34 876.27 830.67 876.46 820.01 C 876.47 816.34 876.48 812.54 874.96 809.14 C 869.24 797.38 863.14 785.82 857.05 774.26 Z" />
<path fill="#9888b4" d=" M 887.94 782.44 C 888.33 782.17 889.11 781.63 889.50 781.36 C 892.07 787.03 894.84 792.62 897.84 798.08 C 899.67 801.41 901.08 805.06 901.06 808.92 C 901.18 816.83 900.74 824.76 901.31 832.67 C 902.03 842.35 901.20 852.07 901.89 861.76 C 908.40 865.86 915.99 868.28 921.78 873.46 C 913.72 870.65 906.69 865.77 899.29 861.67 C 899.07 849.78 899.26 837.88 898.72 826.00 C 898.26 817.48 900.25 808.44 896.56 800.40 C 893.77 794.37 890.77 788.45 887.94 782.44 Z" />
<path fill="#9888b4" d=" M 159.48 915.81 C 160.02 924.86 159.58 933.94 159.72 943.00 C 159.58 951.38 160.01 959.78 159.48 968.16 C 159.14 950.71 159.16 933.25 159.48 915.81 Z" />
<path fill="#fdfdfe" d=" M 371.25 919.68 C 372.65 919.85 374.52 919.17 375.48 920.55 C 379.56 925.89 382.82 931.80 386.89 937.15 C 389.74 941.18 393.17 945.09 394.32 950.02 C 395.02 955.70 394.01 961.41 393.75 967.10 C 376.91 967.06 360.09 967.94 343.24 967.70 C 343.22 951.83 343.23 935.97 343.24 920.10 C 345.68 920.17 348.15 920.07 350.57 920.51 C 352.96 922.47 354.40 925.32 356.16 927.83 C 359.61 933.30 363.48 938.48 367.25 943.73 C 367.79 943.74 368.86 943.77 369.40 943.79 C 369.69 935.73 370.70 927.72 371.25 919.68 Z" />
<path fill="#fdfdfe" d=" M 877.16 919.10 C 879.41 918.93 881.66 918.65 883.93 918.78 C 887.43 922.51 889.43 927.37 892.57 931.40 C 896.33 936.25 899.36 941.77 904.18 945.71 C 904.89 936.91 904.47 928.07 904.47 919.26 C 905.12 919.10 906.41 918.78 907.06 918.62 C 912.06 927.06 916.88 935.60 922.37 943.73 C 926.98 950.00 925.04 958.09 925.25 965.30 C 909.24 965.41 893.22 965.50 877.21 965.25 C 877.22 949.86 877.31 934.48 877.16 919.10 Z" />
<path fill="#9888b4" d=" M 341.47 919.82 C 342.00 927.87 341.64 935.94 341.73 944.00 C 341.63 952.07 342.01 960.15 341.48 968.21 C 341.13 952.09 341.14 935.94 341.47 919.82 Z" />
</svg>
