<?xml version="1.0" encoding="UTF-8" ?>
<!DOCTYPE svg PUBLIC "-//W3C//DTD SVG 1.1//EN" "http://www.w3.org/Graphics/SVG/1.1/DTD/svg11.dtd">
<svg width="1075pt" height="930pt" viewBox="0 0 1075 930" version="1.1" xmlns="http://www.w3.org/2000/svg">
<path fill="#fefefe" d=" M 0.00 0.00 L 1075.00 0.00 L 1075.00 892.33 C 1047.29 892.34 1019.57 892.32 991.86 892.34 C 990.78 869.80 989.24 847.27 988.58 824.71 C 973.11 815.56 956.84 807.83 941.30 798.79 C 936.03 795.89 930.70 793.09 925.33 790.37 C 925.34 784.91 925.33 779.46 925.35 774.01 C 925.56 765.34 924.36 756.71 924.75 748.03 C 924.43 742.60 925.88 736.73 923.19 731.72 C 919.99 725.58 917.34 719.18 914.16 713.03 C 919.13 704.36 923.78 695.52 928.63 686.79 C 930.34 686.24 932.07 685.69 933.81 685.16 C 934.14 671.11 933.42 657.04 934.33 643.01 C 934.44 632.66 934.25 622.31 934.40 611.96 C 935.32 600.00 934.65 588.00 934.88 576.02 C 935.87 561.36 935.24 546.64 935.40 531.96 C 932.50 527.70 929.52 523.49 926.78 519.13 C 925.74 517.63 925.77 515.77 925.75 514.05 C 925.84 478.69 925.73 443.32 925.81 407.96 C 926.13 404.10 923.88 400.81 922.28 397.50 C 918.36 390.01 914.44 382.52 910.49 375.05 C 919.69 370.07 928.53 364.46 937.51 359.10 C 937.43 348.05 937.66 336.99 937.41 325.94 C 936.18 312.99 937.43 299.97 936.56 287.01 C 936.25 276.64 936.67 266.26 936.37 255.90 C 935.33 243.62 936.15 231.29 935.78 218.99 C 940.15 211.97 944.53 204.96 949.01 198.01 C 950.30 196.26 950.52 194.08 950.45 191.98 C 950.23 176.58 951.74 161.24 951.54 145.84 C 954.55 147.35 957.55 148.90 960.62 150.31 C 964.44 148.51 968.41 150.17 972.21 151.07 C 980.15 137.62 987.12 123.62 995.17 110.22 C 998.38 104.50 1001.46 98.70 1004.66 92.98 C 998.23 80.73 990.62 69.15 984.23 56.88 C 981.24 51.50 978.09 46.20 975.14 40.80 C 972.80 36.93 970.95 32.48 967.05 29.89 C 957.99 22.67 947.51 16.95 940.26 7.71 C 931.58 7.75 922.91 7.72 914.23 7.74 C 908.34 13.33 902.11 18.57 896.41 24.37 C 889.08 18.13 881.73 11.91 874.38 5.70 C 872.45 3.70 869.51 4.33 867.03 4.20 C 860.01 4.49 853.03 3.43 846.02 3.69 C 835.72 3.36 825.31 2.41 815.09 4.20 C 811.18 4.82 807.21 4.71 803.27 4.67 C 800.21 6.93 797.22 9.27 794.22 11.59 C 790.16 9.39 786.22 6.99 782.13 4.85 C 778.73 2.96 774.71 3.87 771.02 3.69 C 751.66 3.20 732.31 2.39 712.95 2.14 C 708.45 1.87 704.07 0.72 699.60 0.30 C 693.84 5.82 687.73 10.95 681.79 16.28 C 678.39 12.51 675.28 8.49 671.93 4.67 C 658.61 4.53 645.27 5.08 631.97 4.26 C 621.32 4.18 610.67 4.27 600.02 4.23 C 595.13 8.93 590.24 13.64 585.58 18.58 C 579.46 25.09 572.75 31.02 566.59 37.50 C 558.20 46.45 548.99 54.60 540.67 63.62 C 540.82 88.80 539.04 113.92 539.19 139.10 C 539.71 145.17 545.81 147.95 550.55 150.43 C 530.72 170.23 511.00 190.13 491.09 209.85 C 477.07 209.87 463.05 209.81 449.03 209.89 C 446.77 209.89 444.35 209.91 442.42 208.56 C 429.38 200.54 416.00 193.07 403.08 184.86 C 396.03 180.58 388.78 176.63 381.82 172.19 C 379.46 170.76 377.03 168.94 374.11 169.18 C 359.11 169.37 344.08 168.76 329.10 169.69 C 315.07 169.89 301.02 169.22 287.02 170.22 C 276.00 170.26 264.98 170.21 253.95 170.21 C 249.65 170.19 245.47 171.43 241.43 172.80 C 233.80 175.87 228.63 182.57 223.34 188.54 C 211.57 200.98 199.43 213.05 187.83 225.66 C 182.19 231.78 175.96 237.34 170.62 243.74 C 166.87 248.28 162.29 252.04 158.51 256.55 C 154.18 261.61 148.88 265.75 144.70 270.93 C 136.61 283.78 130.54 297.77 122.99 310.93 C 115.03 326.07 107.85 341.62 99.53 356.57 C 94.21 367.43 88.60 378.14 83.06 388.88 C 81.10 395.38 79.59 402.16 79.82 408.99 C 81.21 430.30 81.53 451.68 82.73 473.00 C 82.67 475.87 83.20 479.04 81.57 481.60 C 75.92 491.28 70.34 501.00 65.04 510.87 C 60.63 525.48 61.92 540.93 61.75 555.99 C 61.75 588.66 61.75 621.33 61.75 654.00 C 61.92 659.91 61.13 665.94 62.63 671.74 C 65.02 681.14 67.39 690.55 69.67 699.98 C 70.99 704.89 70.49 710.01 70.56 715.04 C 70.55 744.37 70.54 773.70 70.57 803.03 C 70.46 807.57 71.35 812.54 68.65 816.56 C 66.09 822.23 61.08 827.33 61.71 833.97 C 62.13 845.66 60.88 857.31 61.23 869.01 C 60.61 877.25 60.62 885.51 60.70 893.77 C 41.24 893.75 21.77 893.78 2.30 893.75 C 2.07 905.85 0.59 917.90 0.43 930.00 L 0.00 930.00 L 0.00 0.00 Z" />
<path fill="#3f1c7e" d=" M 681.79 16.28 C 687.73 10.95 693.84 5.82 699.60 0.30 C 704.07 0.72 708.45 1.87 712.95 2.14 C 732.31 2.39 751.66 3.20 771.02 3.69 C 774.71 3.87 778.73 2.96 782.13 4.85 C 786.22 6.99 790.16 9.39 794.22 11.59 C 797.22 9.27 800.21 6.93 803.27 4.67 C 807.21 4.71 811.18 4.82 815.09 4.20 C 825.31 2.41 835.72 3.36 846.02 3.69 C 853.03 3.43 860.01 4.49 867.03 4.20 C 869.51 4.33 872.45 3.70 874.38 5.70 C 881.73 11.91 889.08 18.13 896.41 24.37 C 902.11 18.57 908.34 13.33 914.23 7.74 C 922.91 7.72 931.58 7.75 940.26 7.71 C 947.51 16.95 957.99 22.67 967.05 29.89 C 970.95 32.48 972.80 36.93 975.14 40.80 C 978.09 46.20 981.24 51.50 984.23 56.88 C 990.62 69.15 998.23 80.73 1004.66 92.98 C 1001.46 98.70 998.38 104.50 995.17 110.22 C 987.12 123.62 980.15 137.62 972.21 151.07 C 968.41 150.17 964.44 148.51 960.62 150.31 C 957.55 148.90 954.55 147.35 951.54 145.84 C 951.74 161.24 950.23 176.58 950.45 191.98 C 950.52 194.08 950.30 196.26 949.01 198.01 C 944.53 204.96 940.15 211.97 935.78 218.99 C 936.15 231.29 935.33 243.62 936.37 255.90 C 936.67 266.26 936.25 276.64 936.56 287.01 C 937.43 299.97 936.18 312.99 937.41 325.94 C 937.66 336.99 937.43 348.05 937.51 359.10 C 928.53 364.46 919.69 370.07 910.49 375.05 C 914.44 382.52 918.36 390.01 922.28 397.50 C 923.88 400.81 926.13 404.10 925.81 407.96 C 925.73 443.32 925.84 478.69 925.75 514.05 C 925.77 515.77 925.74 517.63 926.78 519.13 C 929.52 523.49 932.50 527.70 935.40 531.96 C 935.24 546.64 935.87 561.36 934.88 576.02 C 934.65 588.00 935.32 600.00 934.40 611.96 C 934.25 622.31 934.44 632.66 934.33 643.01 C 933.42 657.04 934.14 671.11 933.81 685.16 C 932.07 685.69 930.34 686.24 928.63 686.79 C 923.78 695.52 919.13 704.36 914.16 713.03 C 917.34 719.18 919.99 725.58 923.19 731.72 C 925.88 736.73 924.43 742.60 924.75 748.03 C 924.36 756.71 925.56 765.34 925.35 774.01 C 925.33 779.46 925.34 784.91 925.33 790.37 C 930.70 793.09 936.03 795.89 941.30 798.79 C 956.84 807.83 973.11 815.56 988.58 824.71 C 989.24 847.27 990.78 869.80 991.86 892.34 C 1019.57 892.32 1047.29 892.34 1075.00 892.33 L 1075.00 899.88 C 1074.35 909.35 1073.37 918.82 1073.29 928.33 C 985.18 928.46 897.06 928.31 808.95 928.40 C 796.97 929.21 784.96 928.70 772.97 928.84 C 696.32 928.84 619.67 928.83 543.02 928.85 C 529.03 930.04 514.98 929.34 500.95 929.53 C 431.98 929.52 363.00 929.53 294.03 929.52 C 285.13 929.73 276.18 929.02 267.32 930.00 L 0.43 930.00 C 0.59 917.90 2.07 905.85 2.30 893.75 C 21.77 893.78 41.24 893.75 60.70 893.77 C 60.62 885.51 60.61 877.25 61.23 869.01 C 60.88 857.31 62.13 845.66 61.71 833.97 C 61.08 827.33 66.09 822.23 68.65 816.56 C 71.35 812.54 70.46 807.57 70.57 803.03 C 70.54 773.70 70.55 744.37 70.56 715.04 C 70.49 710.01 70.99 704.89 69.67 699.98 C 67.39 690.55 65.02 681.14 62.63 671.74 C 61.13 665.94 61.92 659.91 61.75 654.00 C 61.75 621.33 61.75 588.66 61.75 555.99 C 61.92 540.93 60.63 525.48 65.04 510.87 C 70.34 501.00 75.92 491.28 81.57 481.60 C 83.20 479.04 82.67 475.87 82.73 473.00 C 81.53 451.68 81.21 430.30 79.82 408.99 C 79.59 402.16 81.10 395.38 83.06 388.88 C 88.60 378.14 94.21 367.43 99.53 356.57 C 107.85 341.62 115.03 326.07 122.99 310.93 C 130.54 297.77 136.61 283.78 144.70 270.93 C 148.88 265.75 154.18 261.61 158.51 256.55 C 162.29 252.04 166.87 248.28 170.62 243.74 C 175.96 237.34 182.19 231.78 187.83 225.66 C 199.43 213.05 211.57 200.98 223.34 188.54 C 228.63 182.57 233.80 175.87 241.43 172.80 C 245.47 171.43 249.65 170.19 253.95 170.21 C 264.98 170.21 276.00 170.26 287.02 170.22 C 301.02 169.22 315.07 169.89 329.10 169.69 C 344.08 168.76 359.11 169.37 374.11 169.18 C 377.03 168.94 379.46 170.76 381.82 172.19 C 388.78 176.63 396.03 180.58 403.08 184.86 C 416.00 193.07 429.38 200.54 442.42 208.56 C 444.35 209.91 446.77 209.89 449.03 209.89 C 463.05 209.81 477.07 209.87 491.09 209.85 C 511.00 190.13 530.72 170.23 550.55 150.43 C 545.81 147.95 539.71 145.17 539.19 139.10 C 539.04 113.92 540.82 88.80 540.67 63.62 C 548.99 54.60 558.20 46.45 566.59 37.50 C 572.75 31.02 579.46 25.09 585.58 18.58 C 590.24 13.64 595.13 8.93 600.02 4.23 C 610.67 4.27 621.32 4.18 631.97 4.26 C 645.27 5.08 658.61 4.53 671.93 4.67 C 675.28 8.49 678.39 12.51 681.79 16.28 Z" />
<path fill="#fefefe" d=" M 680.85 38.92 C 688.53 32.55 696.46 26.48 703.89 19.81 C 727.94 19.81 751.99 19.80 776.05 19.81 C 777.71 19.69 779.25 20.42 780.64 21.28 C 785.34 24.18 790.04 27.10 794.91 29.70 C 799.02 27.34 802.64 23.90 807.06 22.21 C 827.28 22.04 847.51 22.15 867.74 22.16 C 873.15 28.54 878.44 35.02 883.91 41.34 C 891.63 41.60 899.31 40.74 907.03 40.65 C 910.84 37.71 913.23 33.20 916.75 29.86 C 921.36 28.42 926.37 27.78 931.12 28.84 C 938.24 32.41 946.02 35.44 951.53 41.41 C 958.06 51.03 963.51 61.35 969.96 71.03 C 973.94 77.24 978.24 83.27 981.46 89.93 C 977.73 94.64 974.14 99.46 970.63 104.33 C 966.63 98.15 963.28 91.61 959.84 85.12 C 956.03 79.36 950.08 75.54 945.42 70.54 C 939.89 65.42 934.57 60.06 928.70 55.30 C 924.67 51.85 921.06 46.89 915.34 46.46 C 908.43 51.57 902.64 57.93 896.52 63.92 C 905.91 80.66 915.70 97.18 924.85 114.05 C 926.28 116.82 925.53 120.05 925.71 123.03 C 925.30 142.98 926.84 162.93 925.94 182.85 C 921.67 191.86 916.18 200.30 911.42 209.07 C 913.38 214.45 916.25 219.53 917.75 225.04 C 917.94 265.74 917.80 306.44 917.82 347.15 C 912.96 349.50 908.31 352.26 903.40 354.52 C 903.20 347.06 903.81 339.57 902.90 332.14 C 902.42 326.14 903.18 320.09 902.55 314.10 C 901.35 311.88 899.54 310.08 897.95 308.16 C 901.38 303.96 904.44 299.47 907.63 295.08 C 903.79 286.84 899.29 278.93 895.37 270.73 C 891.28 263.91 882.38 265.08 876.33 261.25 C 878.51 258.23 880.62 255.16 882.67 252.05 C 879.84 245.45 876.81 238.94 874.01 232.33 C 880.93 235.38 887.80 238.57 894.89 241.25 C 896.27 240.92 897.68 240.64 899.11 240.40 C 900.40 241.00 901.72 241.58 903.05 242.15 C 903.23 240.23 904.63 237.75 902.71 236.29 C 894.22 227.78 886.05 218.95 877.53 210.46 C 873.34 205.32 868.40 200.90 863.68 196.27 C 859.34 192.33 860.44 185.46 856.70 181.16 C 852.87 178.02 848.01 175.70 842.98 175.79 C 826.56 175.83 810.15 175.81 793.73 175.80 C 791.67 181.57 789.93 187.44 787.97 193.24 C 787.33 195.58 785.05 196.78 783.41 198.36 C 777.75 203.03 773.32 208.98 767.65 213.63 C 760.36 220.67 752.92 227.59 746.39 235.34 C 743.63 238.33 740.50 240.93 737.83 244.00 C 734.77 247.45 730.91 250.50 729.37 255.01 C 728.33 266.00 727.38 277.00 727.12 288.04 C 734.26 290.25 741.44 287.51 748.60 286.83 C 748.64 280.18 748.49 273.54 748.64 266.90 C 748.94 264.45 749.17 261.75 750.59 259.66 C 758.34 250.70 766.84 242.39 775.69 234.52 C 781.07 229.92 788.30 231.77 794.70 231.96 C 791.91 237.44 788.81 242.75 785.61 248.00 C 790.00 252.14 794.17 256.50 798.19 260.99 C 796.19 262.24 794.40 263.95 792.13 264.69 C 784.96 264.98 777.77 264.74 770.60 264.77 C 765.09 275.46 759.07 285.87 753.66 296.61 C 752.70 298.63 751.28 300.60 751.52 302.96 C 751.52 322.58 751.53 342.20 751.53 361.82 C 728.30 361.80 705.07 361.89 681.84 361.78 C 681.87 343.17 681.81 324.57 681.88 305.97 C 681.75 304.55 682.07 302.97 681.25 301.72 C 671.45 286.42 660.59 271.82 650.71 256.58 C 648.56 256.95 646.42 257.36 644.29 257.80 C 644.29 263.53 644.54 269.28 643.83 274.98 C 643.57 294.42 642.33 313.82 642.17 333.26 C 635.64 324.58 629.96 315.29 623.85 306.31 C 622.45 303.97 619.88 302.91 617.50 301.87 C 616.91 325.95 615.15 349.99 614.73 374.07 C 609.52 366.00 604.82 357.60 599.23 349.80 C 596.80 349.38 594.41 348.88 591.99 348.46 C 591.26 352.98 589.82 357.38 589.35 361.94 C 589.14 369.29 589.42 376.65 589.26 384.01 C 588.12 394.15 588.87 404.39 588.65 414.58 C 573.95 414.46 559.21 414.82 544.52 414.41 C 540.83 409.73 537.62 404.65 534.15 399.80 C 531.06 395.48 529.02 389.50 523.39 387.92 C 523.16 397.97 524.51 407.94 524.82 417.97 C 525.58 424.59 525.39 431.28 526.12 437.90 C 539.59 445.77 553.14 453.57 566.77 461.19 C 576.92 467.06 587.00 473.07 597.34 478.60 C 606.54 483.59 615.35 489.24 624.54 494.25 C 635.13 500.44 646.13 505.95 656.38 512.71 C 662.02 519.88 667.25 527.44 672.11 535.17 C 658.66 535.05 645.28 536.81 631.83 536.64 C 631.34 538.70 630.79 540.75 630.23 542.80 C 637.01 554.28 644.70 565.22 651.08 576.94 C 642.50 581.74 633.77 586.26 625.43 591.47 C 622.35 593.55 618.49 592.57 615.02 592.78 C 599.35 592.53 583.64 593.30 568.00 592.25 C 552.88 592.24 537.76 592.29 522.64 592.23 C 536.50 584.76 550.44 577.43 564.30 569.96 C 564.09 556.79 565.08 543.67 564.81 530.50 C 543.63 530.40 522.42 530.73 501.26 530.34 C 493.13 526.42 485.61 521.33 477.49 517.35 C 465.85 511.42 455.00 503.92 442.77 499.19 C 437.38 504.66 431.99 510.13 426.46 515.45 C 420.59 521.89 414.64 528.27 408.27 534.22 C 401.32 541.85 394.05 549.19 386.62 556.36 C 386.65 579.57 386.56 602.77 386.67 625.98 C 392.09 624.94 397.39 622.43 403.03 623.68 C 411.37 608.95 420.49 594.69 428.88 580.00 C 431.26 576.20 433.25 572.15 436.00 568.59 C 436.24 581.15 437.30 593.68 437.76 606.24 C 438.08 610.76 439.20 615.78 436.59 619.85 C 429.61 631.92 422.97 644.19 416.47 656.52 C 414.45 660.07 412.75 663.92 409.76 666.80 C 406.58 669.86 403.53 673.03 400.42 676.16 C 400.46 693.05 399.01 709.90 399.35 726.81 C 401.00 733.36 404.53 739.38 405.81 746.04 C 405.94 766.02 405.82 786.00 405.86 805.98 C 405.94 809.64 405.59 813.33 406.11 816.97 C 416.74 822.98 427.05 829.58 437.74 835.50 C 440.95 837.53 444.46 839.09 447.54 841.33 C 448.16 858.27 447.62 875.28 447.79 892.25 C 444.70 893.23 441.47 893.53 438.24 893.46 C 437.89 887.11 439.43 880.78 438.60 874.45 C 432.00 864.69 425.57 854.79 419.07 844.95 C 417.45 845.63 415.84 846.33 414.22 847.00 C 413.60 854.76 412.56 862.49 412.23 870.28 C 407.26 862.35 402.08 854.56 396.91 846.77 C 393.48 846.76 390.04 846.76 386.61 846.76 C 386.62 862.30 386.64 877.84 386.61 893.38 C 367.14 893.37 347.67 893.38 328.20 893.38 C 328.16 872.59 328.23 851.79 328.16 831.00 C 327.40 826.30 333.13 823.67 332.39 818.97 C 332.13 803.33 332.91 787.65 331.78 772.04 C 331.81 760.69 331.78 749.34 331.82 737.99 C 332.10 734.42 330.25 731.25 328.82 728.13 C 322.61 715.82 316.17 703.64 309.70 691.47 C 310.05 681.95 309.45 672.40 309.99 662.90 C 313.20 649.22 316.82 635.61 319.67 621.86 C 319.96 602.57 319.67 583.26 319.81 563.96 C 320.06 560.20 318.75 556.64 317.71 553.10 C 312.55 535.12 306.89 517.28 301.92 499.25 C 301.48 497.49 301.49 495.66 301.39 493.87 C 294.55 486.95 287.74 479.99 280.70 473.27 C 276.43 469.44 273.94 464.18 270.70 459.55 C 268.51 459.70 266.33 459.97 264.16 460.26 C 264.02 467.49 264.49 474.75 263.74 481.97 C 263.34 488.20 263.96 494.46 263.47 500.68 C 255.27 510.04 245.92 518.38 237.23 527.29 C 231.43 527.31 225.63 527.18 219.84 527.31 C 218.08 527.16 216.87 528.65 215.62 529.64 C 207.90 537.25 200.20 544.88 192.60 552.60 C 184.53 559.86 177.05 567.74 169.42 575.44 C 166.63 578.31 163.32 580.77 161.26 584.26 C 160.44 600.59 159.44 616.90 158.75 633.23 C 146.81 626.74 134.73 620.51 122.67 614.27 C 118.25 612.06 114.06 608.39 108.76 609.35 C 108.93 627.83 107.25 646.23 107.22 664.71 C 114.19 674.44 120.92 684.35 128.03 693.99 C 129.63 696.44 132.22 698.73 131.78 701.95 C 131.65 732.92 131.93 763.90 131.63 794.87 C 140.19 805.79 149.11 816.41 157.60 827.38 C 160.24 830.76 163.28 833.91 165.12 837.85 C 167.21 842.10 170.41 846.02 171.14 850.79 C 171.19 861.28 172.18 871.72 172.23 882.20 C 163.52 877.15 155.04 871.72 146.46 866.46 C 142.69 864.03 138.15 863.45 133.85 862.58 C 133.80 868.05 133.87 873.52 133.78 878.99 C 126.02 874.82 118.34 870.50 110.78 865.97 C 107.95 864.21 104.76 863.17 101.51 862.52 C 101.96 872.97 100.43 883.32 100.82 893.77 C 97.44 893.76 94.06 893.76 90.68 893.77 C 90.61 888.53 90.85 883.28 90.53 878.05 C 89.75 870.39 90.71 862.66 89.73 855.02 C 89.79 842.24 88.97 829.50 89.13 816.73 C 93.54 812.57 97.21 807.73 101.49 803.46 C 101.47 787.64 101.49 771.82 101.49 756.00 C 100.16 738.00 101.22 719.91 100.79 701.87 C 100.44 699.06 98.98 696.55 97.98 693.95 C 93.44 683.57 89.07 673.10 84.40 662.77 C 84.17 615.82 84.29 568.83 84.35 521.87 C 89.17 515.01 92.95 507.49 97.37 500.37 C 106.19 485.85 115.01 471.32 123.47 456.61 C 124.94 452.92 123.77 448.88 123.61 445.07 C 123.45 437.05 122.21 429.09 122.36 421.07 C 128.62 415.09 136.76 410.51 140.31 402.23 C 149.07 387.59 157.52 372.77 166.05 358.00 C 167.62 355.05 170.11 352.43 170.73 349.08 C 170.76 336.40 171.93 323.76 171.80 311.08 C 194.67 288.61 217.20 265.76 239.91 243.12 C 247.36 243.07 254.71 244.46 262.15 244.68 C 262.17 256.40 262.13 268.13 262.17 279.85 C 270.22 286.73 278.39 293.49 286.07 300.78 C 297.49 300.87 308.93 300.60 320.34 300.90 C 322.31 302.24 323.20 304.64 324.60 306.50 C 334.27 320.35 343.04 334.79 352.54 348.75 C 359.04 348.76 365.55 348.52 372.02 349.36 C 381.35 349.25 390.66 349.89 400.00 349.81 C 407.02 350.72 414.11 350.37 421.18 350.43 C 426.21 345.38 431.21 340.29 435.97 334.99 C 441.06 329.77 446.57 324.93 451.12 319.20 C 454.81 314.75 459.83 311.52 463.13 306.76 C 463.83 294.04 465.59 281.38 465.83 268.63 C 473.34 268.58 480.84 268.62 488.35 268.60 C 488.39 260.28 489.88 252.06 489.87 243.74 C 500.40 234.01 509.86 223.17 520.63 213.68 C 537.27 196.33 555.24 180.33 571.77 162.87 C 571.93 176.98 571.68 191.09 571.90 205.20 C 579.80 198.68 586.69 191.05 594.38 184.29 C 599.85 178.76 606.00 173.88 611.04 167.93 C 613.27 164.41 614.62 160.21 614.44 156.02 C 614.39 148.32 615.81 140.68 615.46 132.97 C 627.83 125.54 639.99 117.76 652.39 110.38 C 652.30 107.23 651.74 104.12 651.65 100.98 C 651.70 90.30 650.50 79.61 651.69 68.96 C 661.07 60.38 670.43 51.75 679.32 42.67 C 666.49 38.68 653.48 35.32 640.60 31.53 C 633.35 37.58 627.31 44.94 620.40 51.36 C 610.95 59.23 603.14 68.83 593.90 76.93 C 593.45 85.66 592.42 94.35 591.74 103.06 C 591.89 105.42 589.89 106.91 588.45 108.47 C 580.01 116.79 572.23 125.74 563.83 134.09 C 563.57 122.74 564.30 111.36 563.32 100.04 C 563.20 90.53 563.39 81.02 563.23 71.51 C 578.33 56.47 593.29 41.29 608.48 26.34 C 618.64 26.47 628.83 25.90 638.97 26.79 C 646.67 26.95 654.38 26.69 662.09 26.87 C 664.25 26.82 665.63 28.72 667.17 29.92 C 671.45 33.34 675.07 38.08 680.85 38.92 Z" />
<path fill="#3f1c7e" d=" M 786.34 59.14 C 789.27 57.54 792.68 59.26 795.41 60.58 C 801.34 64.14 807.22 67.81 813.39 70.97 C 813.29 88.58 814.08 106.17 813.84 123.78 C 816.59 123.86 819.35 123.87 822.12 123.84 C 822.07 109.86 822.17 95.88 822.08 81.89 C 822.53 79.51 820.23 78.40 818.72 77.14 C 818.77 76.11 818.83 75.09 818.90 74.07 C 825.63 70.55 832.08 66.52 838.63 62.69 C 841.79 61.87 845.51 61.81 848.38 63.62 C 854.39 67.04 860.36 70.57 866.39 73.97 C 866.09 74.54 865.50 75.67 865.21 76.24 C 862.32 76.90 859.38 77.46 856.74 78.84 C 850.90 81.85 844.91 84.53 839.16 87.69 C 839.12 97.19 839.11 106.69 839.17 116.19 C 843.48 114.32 847.55 111.88 851.97 110.26 C 856.03 109.15 859.18 113.38 859.33 116.97 C 854.36 127.24 848.60 137.12 843.20 147.18 C 851.81 146.93 860.37 148.36 868.98 148.23 C 867.60 140.11 863.95 132.43 863.66 124.14 C 867.61 124.02 872.09 122.89 875.57 125.37 C 886.08 131.99 896.88 138.13 907.58 144.43 C 907.34 146.53 906.99 148.62 906.62 150.70 C 905.06 149.97 903.53 149.23 901.99 148.49 C 898.09 151.58 894.33 154.86 890.12 157.52 C 897.14 157.08 904.09 158.40 911.10 158.19 C 912.13 159.21 913.16 160.23 914.21 161.25 C 911.91 165.36 909.74 169.55 907.35 173.60 C 906.43 175.45 904.00 175.17 902.33 175.85 C 902.41 181.30 902.36 186.75 902.37 192.20 C 901.44 192.22 899.56 192.25 898.62 192.27 C 897.78 190.64 896.98 188.98 896.23 187.32 C 892.98 185.75 889.79 183.36 886.00 183.72 C 881.43 183.74 876.87 184.98 872.32 184.16 C 858.61 178.71 851.95 163.20 837.87 158.46 C 821.59 158.03 805.27 158.44 788.98 158.26 C 784.33 158.06 779.67 159.02 775.37 160.75 C 766.49 167.04 758.20 174.13 749.53 180.69 C 746.80 183.48 744.63 178.90 742.67 177.41 C 742.64 179.39 742.62 181.38 742.60 183.36 C 733.70 183.35 724.80 183.36 715.90 183.35 C 712.31 185.75 708.71 188.14 705.19 190.63 C 703.06 190.63 700.94 190.63 698.83 190.63 C 699.19 185.07 699.15 179.49 699.07 173.92 C 699.10 172.29 698.62 170.71 697.76 169.34 C 695.28 165.13 692.91 160.87 690.31 156.74 C 691.12 155.76 691.96 154.78 692.79 153.80 C 708.56 153.81 724.33 153.90 740.10 153.76 C 739.33 147.25 733.65 142.85 730.76 137.23 C 739.51 132.27 748.21 127.22 756.63 121.71 C 760.19 118.90 764.70 121.16 768.68 121.56 C 766.87 130.07 764.78 138.52 762.63 146.95 C 773.01 147.44 783.43 147.11 793.83 147.14 C 792.76 143.04 790.16 139.65 788.02 136.08 C 783.39 128.94 779.15 121.57 774.62 114.38 C 776.30 112.39 777.73 110.20 779.53 108.32 C 782.05 108.20 784.25 109.77 786.52 110.66 C 790.00 112.09 793.34 113.81 796.64 115.64 C 797.03 105.81 797.19 95.87 795.53 86.15 C 795.34 84.36 793.56 83.59 792.17 82.88 C 785.98 79.94 779.63 77.37 773.44 74.45 C 771.42 73.38 769.06 73.47 766.87 73.29 C 767.44 71.49 768.02 69.69 768.56 67.88 C 774.49 64.96 780.43 62.08 786.34 59.14 Z" />
<path fill="#fefefe" d=" M 808.20 190.63 C 818.73 190.63 829.27 190.63 839.81 190.63 C 839.80 193.02 839.80 195.41 839.81 197.80 C 829.26 197.80 818.73 197.79 808.19 197.81 C 808.19 195.41 808.18 193.02 808.20 190.63 Z" />
<path fill="#3f1c7e" d=" M 708.47 205.18 C 717.63 204.93 726.74 205.88 735.89 205.74 C 735.70 207.52 736.07 209.45 735.28 211.11 C 729.72 220.81 723.04 229.80 717.48 239.49 C 716.01 241.66 714.75 245.04 711.47 244.29 C 711.38 237.52 710.55 230.80 710.57 224.03 C 709.99 217.71 710.96 211.19 708.47 205.18 Z" />
<path fill="#fefefe" d=" M 867.34 271.73 C 873.05 283.30 879.32 294.59 885.19 306.08 C 879.13 305.06 873.41 302.52 867.26 302.01 C 867.25 291.92 867.11 281.82 867.34 271.73 Z" />
<path fill="#fefefe" d=" M 801.48 274.93 C 801.86 284.15 801.58 293.39 801.66 302.61 C 797.59 302.60 793.53 302.59 789.47 302.62 C 793.59 293.45 797.83 284.31 801.48 274.93 Z" />
<path fill="#fefefe" d=" M 838.75 284.43 C 840.22 284.47 841.71 284.51 843.20 284.56 C 843.67 287.12 844.21 289.67 844.78 292.22 C 847.04 292.23 849.32 292.25 851.60 292.29 C 852.99 290.22 854.27 288.08 855.56 285.95 C 855.76 291.55 855.04 297.14 855.19 302.75 C 853.22 301.74 851.30 300.30 848.97 300.60 C 836.60 300.59 824.22 300.64 811.84 300.58 C 811.85 295.75 811.79 290.93 811.91 286.10 C 813.92 287.90 815.85 289.80 817.74 291.74 C 819.55 291.54 821.38 291.34 823.21 291.14 C 824.39 288.82 825.59 286.50 826.80 284.20 C 827.86 284.64 828.94 285.10 830.02 285.55 C 830.46 287.76 830.92 289.97 831.38 292.18 C 833.15 292.39 834.92 292.61 836.70 292.82 C 837.41 290.02 838.08 287.23 838.75 284.43 Z" />
<path fill="#fefefe" d=" M 817.30 313.27 C 818.71 312.44 820.38 312.60 821.97 312.55 C 830.34 312.60 838.71 312.57 847.08 312.56 C 850.20 312.20 852.59 314.49 855.07 316.00 C 860.20 319.46 865.43 322.76 870.57 326.21 C 859.05 326.29 847.54 326.23 836.03 326.24 C 821.50 326.95 806.93 326.58 792.39 326.55 C 800.87 322.48 808.89 317.50 817.30 313.27 Z" />
<path fill="#3f1c7e" d=" M 213.59 384.61 C 217.14 379.14 222.08 374.75 226.95 370.50 C 230.73 370.08 234.11 371.73 237.26 373.59 C 237.21 389.38 237.23 405.18 237.26 420.98 C 237.42 426.46 234.92 431.48 233.39 436.62 C 231.35 443.55 228.82 450.32 226.70 457.23 C 225.52 460.35 224.92 463.92 222.44 466.36 C 218.35 470.64 214.29 474.98 209.62 478.65 C 203.17 484.85 196.80 491.15 190.43 497.43 C 185.11 501.67 180.43 506.63 175.76 511.56 C 174.71 510.66 173.67 509.76 172.63 508.86 C 172.49 498.59 172.96 488.30 172.25 478.05 C 172.00 469.70 172.65 461.31 171.88 452.99 C 185.32 439.37 198.87 425.86 212.44 412.36 C 213.40 403.11 212.58 393.85 213.59 384.61 Z" />
<path fill="#fefefe" d=" M 891.49 429.25 C 894.84 424.55 897.43 419.37 900.49 414.49 C 900.69 429.01 900.51 443.54 900.58 458.06 C 901.93 474.68 900.79 491.40 901.30 508.05 C 902.59 513.97 908.01 518.63 907.49 524.98 C 907.43 561.31 907.48 597.65 907.47 633.98 C 907.31 644.68 907.77 655.40 907.26 666.08 C 899.73 679.70 892.11 693.30 884.03 706.61 C 889.54 716.70 894.64 727.01 899.83 737.26 C 901.03 739.68 902.47 742.18 902.24 744.99 C 902.14 767.40 902.33 789.81 902.14 812.22 C 919.06 821.35 935.25 831.78 952.24 840.80 C 953.66 841.61 955.14 842.38 956.41 843.46 C 957.56 859.74 958.48 876.06 959.68 892.34 C 956.39 892.33 953.10 892.33 949.82 892.33 C 949.50 886.07 950.47 879.65 949.34 873.51 C 943.74 863.77 938.36 853.88 932.35 844.38 C 931.02 844.93 929.72 845.49 928.41 846.03 C 928.31 854.43 928.57 862.83 928.25 871.23 C 923.00 863.32 917.72 855.43 912.40 847.57 C 910.44 843.25 905.08 846.08 901.53 845.81 C 901.72 861.32 901.58 876.83 901.60 892.34 C 887.00 892.31 872.40 892.36 857.79 892.32 C 857.97 881.88 857.28 871.41 858.42 861.02 C 858.49 850.28 858.42 839.54 858.45 828.80 C 847.29 810.69 836.69 792.25 825.56 774.13 C 830.35 767.28 834.45 760.00 838.92 752.95 C 840.62 750.22 842.66 747.37 842.23 743.97 C 841.97 727.96 842.81 711.97 842.63 695.96 C 843.92 685.36 842.65 674.66 843.56 664.03 C 843.72 655.78 843.60 647.53 843.61 639.29 C 848.35 636.89 853.11 634.52 857.84 632.10 C 859.11 631.35 860.67 630.80 861.26 629.31 C 869.38 613.31 877.46 597.30 885.33 581.18 C 886.89 577.53 889.86 574.21 889.76 570.06 C 889.75 555.70 889.74 541.33 889.77 526.97 C 890.05 524.05 888.22 521.61 887.03 519.12 C 879.50 522.58 872.69 527.36 865.31 531.12 C 857.76 534.93 850.64 539.58 842.92 543.04 C 849.58 530.68 856.66 518.53 863.12 506.05 C 870.65 492.57 878.33 479.17 885.43 465.45 C 887.15 461.97 889.76 458.83 890.70 455.02 C 890.59 446.41 891.78 437.87 891.49 429.25 Z" />
<path fill="#3f1c7e" d=" M 456.97 422.66 C 457.15 420.83 459.42 420.40 460.93 420.32 C 465.19 420.27 469.46 420.10 473.71 420.44 C 479.62 425.99 482.74 434.11 489.39 438.94 C 489.44 448.45 489.38 457.97 489.43 467.48 C 486.42 468.84 483.16 467.65 480.04 468.01 C 471.74 472.44 464.29 478.33 455.79 482.41 C 452.65 483.48 449.28 483.29 446.02 483.30 C 433.54 483.27 421.07 483.29 408.59 483.29 C 408.59 480.93 408.60 478.57 408.62 476.21 C 420.59 470.13 432.00 463.01 443.80 456.60 C 447.94 454.04 452.48 452.16 456.54 449.48 C 457.39 440.59 456.44 431.58 456.97 422.66 Z" />
<path fill="#fefefe" d=" M 806.30 480.27 C 815.49 464.45 823.77 448.11 833.09 432.36 C 834.98 445.17 834.07 458.12 834.30 471.02 C 834.63 474.61 832.07 477.44 830.48 480.40 C 825.88 488.46 820.48 496.02 816.08 504.19 C 814.72 506.41 813.66 509.10 811.19 510.33 C 797.77 517.56 784.34 524.82 771.21 532.57 C 771.12 525.75 771.19 518.94 771.16 512.14 C 778.36 505.66 785.86 499.52 793.37 493.41 C 797.81 489.19 803.48 485.93 806.30 480.27 Z" />
<path fill="#fefefe" d=" M 749.44 595.08 C 751.14 594.20 753.13 594.52 754.99 594.45 C 767.80 595.21 780.60 596.36 793.43 596.66 C 793.44 604.41 793.37 612.17 793.47 619.92 C 801.17 628.35 808.23 637.34 815.76 645.91 C 816.04 653.63 815.31 661.32 815.31 669.03 C 814.19 679.32 814.89 689.73 813.76 700.02 C 813.74 706.38 813.26 712.71 813.28 719.07 C 812.18 729.34 812.77 739.71 811.73 749.98 C 811.65 761.52 810.67 773.00 810.56 784.53 C 818.61 798.35 826.96 811.99 835.31 825.62 C 835.22 831.14 835.49 836.67 835.19 842.19 C 834.13 849.10 835.07 856.11 834.41 863.06 C 833.98 869.06 834.72 875.12 833.88 881.10 C 833.46 884.83 833.67 888.59 833.64 892.34 C 818.08 892.01 802.55 892.92 787.00 892.75 C 709.34 892.75 631.68 892.74 554.03 892.75 C 548.35 892.78 542.66 892.48 537.03 893.27 C 528.20 893.55 519.35 893.27 510.52 893.39 C 509.17 886.00 510.11 878.48 509.39 871.03 C 509.64 860.93 508.24 850.90 508.73 840.79 C 504.00 837.23 498.88 834.25 494.04 830.87 C 486.76 826.12 479.90 820.75 472.51 816.16 C 472.65 810.46 472.40 804.75 472.65 799.06 C 473.61 791.06 472.78 782.98 473.60 774.97 C 473.17 763.55 474.89 752.17 474.01 740.76 C 471.22 733.28 467.30 726.23 464.45 718.77 C 464.26 701.10 464.41 683.42 464.40 665.75 C 470.39 660.28 475.34 653.80 481.36 648.37 C 489.65 639.60 497.57 630.44 506.51 622.31 C 518.79 628.81 530.17 636.88 542.21 643.82 C 546.88 646.73 551.60 649.56 556.32 652.40 C 566.87 652.57 577.43 652.03 587.96 652.82 C 596.96 653.06 605.99 652.36 614.95 653.38 C 623.30 653.60 631.66 653.39 640.01 653.49 C 643.16 653.81 645.84 651.96 648.47 650.53 C 658.50 644.86 668.82 639.71 678.69 633.75 C 702.42 621.12 725.67 607.63 749.44 595.08 Z" />
<path fill="#fefefe" d=" M 223.07 608.00 C 226.00 604.60 230.57 603.12 234.90 602.74 C 246.27 602.70 257.64 602.74 269.00 602.72 C 271.64 602.48 273.90 603.98 276.19 605.04 C 282.56 608.08 289.08 610.78 295.35 614.04 C 292.83 625.90 290.02 637.71 287.18 649.50 C 286.45 652.93 284.57 655.93 282.79 658.89 C 282.98 670.94 282.81 683.00 282.86 695.05 C 282.63 698.35 284.79 701.04 286.22 703.82 C 291.77 713.28 296.59 723.13 301.91 732.72 C 302.94 734.63 304.03 736.65 303.84 738.92 C 303.81 767.78 303.87 796.64 303.81 825.50 C 302.39 827.34 301.00 829.20 299.61 831.07 C 299.92 851.84 299.68 872.61 299.73 893.38 C 288.81 893.50 277.87 893.05 266.96 893.75 C 248.16 893.79 229.37 893.75 210.57 893.77 C 210.57 876.88 210.56 860.00 210.58 843.12 C 198.75 834.52 186.21 826.89 174.37 818.29 C 174.63 806.52 174.05 794.74 174.79 782.99 C 175.04 773.00 174.25 762.97 175.39 753.02 C 175.59 744.02 175.36 735.01 175.46 726.01 C 175.36 724.74 175.86 723.60 176.53 722.58 C 181.70 713.89 187.42 705.53 192.79 696.96 C 195.59 692.11 199.12 687.46 200.32 681.90 C 200.70 673.60 200.23 665.28 200.52 656.97 C 201.21 648.60 200.65 640.19 200.88 631.81 C 200.78 630.68 201.15 629.76 202.00 629.06 C 209.17 622.18 216.17 615.14 223.07 608.00 Z" />
<path fill="#fefefe" d=" M 1073.29 928.33 C 1073.37 918.82 1074.35 909.35 1075.00 899.88 L 1075.00 930.00 L 267.32 930.00 C 276.18 929.02 285.13 929.73 294.03 929.52 C 363.00 929.53 431.98 929.52 500.95 929.53 C 514.98 929.34 529.03 930.04 543.02 928.85 C 619.67 928.83 696.32 928.84 772.97 928.84 C 784.96 928.70 796.97 929.21 808.95 928.40 C 897.06 928.31 985.18 928.46 1073.29 928.33 Z" />
</svg>
